<svg xmlns="http://www.w3.org/2000/svg" width="50" height="62" viewBox="0 0 50 62" fill="none"><path d="M21 57H15C14.7348 57 14.4804 57.1054 14.2929 57.2929C14.1054 57.4804 14 57.7348 14 58C14 58.2652 14.1054 58.5196 14.2929 58.7071C14.4804 58.8946 14.7348 59 15 59H21C21.2652 59 21.5196 58.8946 21.7071 58.7071C21.8946 58.5196 22 58.2652 22 58C22 57.7348 21.8946 57.4804 21.7071 57.2929C21.5196 57.1054 21.2652 57 21 57Z" fill="white"></path><path d="M29 26.1249C29 23.58 28.1175 21.1138 26.503 19.1466C24.8885 17.1794 22.6419 15.8328 20.1459 15.3364C17.6498 14.8399 15.0589 15.2243 12.8145 16.4239C10.5701 17.6236 8.81114 19.5644 7.83728 21.9156C6.86341 24.2668 6.73492 26.883 7.47369 29.3183C8.21247 31.7536 9.7728 33.8574 11.8888 35.2712C14.0049 36.6851 16.5456 37.3215 19.0783 37.072C21.6109 36.8226 23.9787 35.7027 25.7782 33.9031C26.8029 32.884 27.6152 31.6718 28.1682 30.3367C28.7212 29.0016 29.0039 27.57 29 26.1249V26.1249ZM18 35.1249C15.9178 35.1249 13.9 34.403 12.2904 33.0821C10.6808 31.7612 9.57905 29.923 9.17279 27.8808C8.76654 25.8387 9.08095 23.7188 10.0625 21.8824C11.044 20.0461 12.6319 18.6069 14.5555 17.81C16.4792 17.0132 18.6197 16.908 20.6122 17.5124C22.6048 18.1168 24.3261 19.3934 25.483 21.1246C26.6398 22.8559 27.1606 24.9347 26.9565 27.0069C26.7524 29.0791 25.8362 31.0164 24.3639 32.4887C23.5301 33.3271 22.5384 33.9918 21.446 34.4443C20.3536 34.8968 19.1824 35.1281 18 35.1249Z" fill="white"></path><path d="M49.4087 50.5875L35.995 37.0638C35.9986 37.0322 36.0002 37.0005 36 36.9688V3.5C35.999 2.57206 35.6299 1.68241 34.9737 1.02626C34.3176 0.370104 33.4279 0.00102566 32.5 0H3.5C2.57206 0.00102566 1.68241 0.370104 1.02626 1.02626C0.370104 1.68241 0.00102566 2.57206 0 3.5V58.5C0.00102566 59.4279 0.370104 60.3176 1.02626 60.9737C1.68241 61.6299 2.57206 61.999 3.5 62H32.5C33.4279 61.999 34.3176 61.6299 34.9737 60.9737C35.6299 60.3176 35.999 59.4279 36 58.5V51.2687L42.3312 57.6525C42.519 57.8412 42.7739 57.9477 43.04 57.9487H43.0412C43.3065 57.9488 43.561 57.8436 43.7487 57.6562L49.4062 51.9987C49.593 51.8116 49.6981 51.5581 49.6986 51.2936C49.6991 51.0292 49.5949 50.7753 49.4087 50.5875V50.5875ZM22.7188 2L22.2188 4H13.7812L13.2812 2H22.7188ZM34 58.5C33.9997 58.8977 33.8415 59.2791 33.5603 59.5603C33.2791 59.8415 32.8977 59.9997 32.5 60H3.5C3.10228 59.9997 2.72094 59.8415 2.43971 59.5603C2.15847 59.2791 2.00033 58.8977 2 58.5V3.5C2.00033 3.10228 2.15847 2.72094 2.43971 2.43971C2.72094 2.15847 3.10228 2.00033 3.5 2H11.2188L12.03 5.2425C12.0841 5.45884 12.2089 5.6509 12.3847 5.78815C12.5604 5.9254 12.777 5.99997 13 6H23C23.223 5.99997 23.4396 5.9254 23.6153 5.78815C23.7911 5.6509 23.9159 5.45884 23.97 5.2425L24.7812 2H32.5C32.8977 2.00033 33.2791 2.15847 33.5603 2.43971C33.8415 2.72094 33.9997 3.10228 34 3.5V35.13C33.863 35.0614 33.712 35.0255 33.5588 35.025H33.5563C33.291 35.0249 33.0365 35.1301 32.8488 35.3175L32.3525 35.8138L30.68 34.14C32.6515 31.0159 33.3975 27.273 32.7746 23.6318C32.1516 19.9906 30.2037 16.7085 27.3058 14.4175C24.408 12.1264 20.765 10.9884 17.0783 11.2225C13.3916 11.4565 9.92185 13.0461 7.33698 15.6853C4.75211 18.3244 3.2349 21.8264 3.07745 25.5172C2.92 29.2079 4.13344 32.8265 6.48415 35.6761C8.83487 38.5258 12.1567 40.4052 15.81 40.9524C19.4634 41.4995 23.19 40.6759 26.2725 38.64L27.9 40.2675L27.1925 40.9738C27.0052 41.1606 26.8997 41.4142 26.8992 41.6789C26.8987 41.9435 27.0033 42.1974 27.19 42.385L34 49.2525V58.5ZM28.5988 36.7388L28.6063 36.7313L28.6138 36.7238L29.525 35.8138L30.9388 37.2275L29.3138 38.8525L27.9 37.4388L28.5988 36.7388ZM27.195 35.315L27.19 35.32C24.7516 37.7571 21.445 39.1258 17.9975 39.1251C14.55 39.1244 11.2439 37.7543 8.80647 35.3162C6.36905 32.8782 4.99988 29.5717 5.00011 26.1242C5.00035 22.6767 6.36997 19.3705 8.80772 16.9327C11.2455 14.495 14.5517 13.1253 17.9992 13.1251C21.4467 13.1249 24.7532 14.494 27.1912 16.9315C29.6293 19.3689 30.9994 22.675 31.0001 26.1225C31.0008 29.57 29.6321 32.8766 27.195 35.315V35.315ZM43.045 55.5312L29.3112 41.6838L33.5537 37.4412L47.2875 51.2887L43.045 55.5312Z" fill="white"></path></svg>