<svg xmlns="http://www.w3.org/2000/svg" width="58" height="60" viewBox="0 0 58 60" fill="none"><path d="M46.6095 6.31808C42.2186 2.77893 36.9158 0.624024 31.3482 0.116322C25.7806 -0.391379 20.189 0.77008 15.2556 3.45897C10.3222 6.14786 6.26051 10.2479 3.56604 15.2588C0.87157 20.2696 -0.33911 25.9747 0.0817367 31.6776L0.526978 37.6759V37.9796L2.01112 57.7965C2.08146 58.18 2.23348 58.5429 2.45636 58.8595V59.0113C2.53056 59.0113 2.53057 59.0113 2.53057 59.0872C2.73793 59.3701 3.00682 59.5997 3.31594 59.7579C3.62506 59.916 3.96592 59.9984 4.31153 59.9984H17.2977C17.5929 60.009 17.887 59.9573 18.1618 59.8466C18.4366 59.7359 18.6861 59.5685 18.895 59.3548C19.1038 59.1411 19.2674 58.8858 19.3756 58.6046C19.4838 58.3235 19.5343 58.0225 19.5239 57.7206V37.7518C19.5343 37.4498 19.4838 37.1489 19.3756 36.8677C19.2674 36.5866 19.1038 36.3312 18.895 36.1175C18.6861 35.9039 18.4366 35.7365 18.1618 35.6258C17.887 35.515 17.5929 35.4634 17.2977 35.474H4.83098L4.53415 31.298C4.18448 26.4797 5.2122 21.6614 7.49205 17.4302C9.7719 13.199 13.2054 9.7378 17.3742 7.4683C21.5429 5.19879 26.2669 4.21904 30.9704 4.64843C35.6738 5.07783 40.1536 6.89784 43.8638 9.88665C47.0088 12.3984 49.4957 15.6692 51.1016 19.406C52.7075 23.1428 53.3823 27.2288 53.0655 31.298L52.7687 35.474H40.3019C39.7115 35.474 39.1452 35.714 38.7277 36.1411C38.3102 36.5683 38.0757 37.1477 38.0757 37.7518V57.7206C38.0757 58.3247 38.3102 58.904 38.7277 59.3312C39.1452 59.7584 39.7115 59.9984 40.3019 59.9984H53.2881C53.7695 60.0174 54.2431 59.8706 54.6333 59.5815C55.0235 59.2924 55.3076 58.8778 55.4401 58.4039C55.4448 58.3454 55.4714 58.291 55.5143 58.252V58.252V57.9483L57.4437 31.7536C57.8317 26.9281 57.0453 22.0795 55.1548 17.6409C53.2642 13.2024 50.3283 9.3122 46.6095 6.31808V6.31808ZM15.0715 40.0296V55.4427H6.31512L5.12781 40.0296H15.0715ZM42.5281 40.0296H52.4718L51.2845 55.4427H42.5281V40.0296Z" fill="black"></path></svg>