<svg xmlns="http://www.w3.org/2000/svg" width="26" height="31" viewBox="0 0 26 31" fill="none"><path d="M12.677 24.9712C9.77703 24.9712 3.00203 15.6242 3.00203 10.4882C2.98902 9.20945 3.22966 7.94081 3.71002 6.75564C4.19038 5.57048 4.90093 4.49229 5.80058 3.58345C6.70023 2.67461 7.77113 1.95313 8.95136 1.46075C10.1316 0.968366 11.3977 0.714844 12.6765 0.714844C13.9553 0.714844 15.2215 0.968366 16.4017 1.46075C17.5819 1.95313 18.6528 2.67461 19.5525 3.58345C20.4521 4.49229 21.1627 5.57048 21.643 6.75564C22.1234 7.94081 22.364 9.20945 22.351 10.4882C22.351 15.2942 15.408 24.9712 12.677 24.9712ZM12.677 2.8552C10.658 2.8589 8.72268 3.66239 7.29472 5.08978C5.86677 6.51717 5.06252 8.45218 5.05803 10.4712C5.05803 15.0092 11.258 22.7142 12.677 22.8992C14.1 22.5152 20.277 14.6832 20.277 10.4712C20.2733 8.45494 19.4721 6.52203 18.0481 5.09453C16.6242 3.66703 14.6933 2.86092 12.677 2.8522V2.8552ZM12.677 14.0382C11.927 14.0382 11.1939 13.8158 10.5703 13.3991C9.94671 12.9825 9.46068 12.3902 9.17368 11.6973C8.88667 11.0044 8.81157 10.242 8.95789 9.50642C9.1042 8.77085 9.46536 8.09518 9.99568 7.56485C10.526 7.03453 11.2017 6.67338 11.9372 6.52707C12.6728 6.38075 13.4353 6.45585 14.1282 6.74285C14.8211 7.02986 15.4133 7.51589 15.83 8.13948C16.2466 8.76307 16.469 9.49622 16.469 10.2462C16.469 11.2519 16.0695 12.2164 15.3584 12.9276C14.6472 13.6387 13.6827 14.0382 12.677 14.0382ZM12.677 8.5112C12.332 8.51121 11.9947 8.61361 11.7079 8.80545C11.4212 8.99728 11.1978 9.26991 11.066 9.58881C10.9343 9.90771 10.9002 10.2585 10.968 10.5968C11.0359 10.9351 11.2026 11.2457 11.447 11.4892C11.6915 11.7326 12.0027 11.8981 12.3413 11.9646C12.6799 12.031 13.0305 11.9955 13.3489 11.8625C13.6673 11.7295 13.939 11.505 14.1297 11.2175C14.3204 10.9299 14.4214 10.5922 14.42 10.2472C14.4182 9.78615 14.2337 9.3446 13.907 9.01924C13.5804 8.69388 13.1381 8.5112 12.677 8.5112Z" fill="#252531"></path><path d="M19.422 20.7189C19.287 20.6869 19.1471 20.6818 19.0101 20.7039C18.8731 20.7261 18.7419 20.7749 18.6238 20.8478C18.3854 20.9949 18.2151 21.2307 18.1505 21.5034C18.0859 21.776 18.1323 22.0632 18.2794 22.3016C18.4266 22.5401 18.6624 22.7103 18.935 22.7749C22.218 23.5539 23.408 24.7059 23.408 25.2909C23.408 26.5539 19.193 28.4619 12.839 28.4619C6.48503 28.4619 2.27003 26.5539 2.27003 25.2909C2.27003 24.7049 3.46103 23.5539 6.74203 22.7749C6.87703 22.7429 7.00441 22.6846 7.11689 22.6034C7.22938 22.5222 7.32477 22.4197 7.39762 22.3016C7.47046 22.1835 7.51934 22.0523 7.54146 21.9153C7.56358 21.7784 7.55851 21.6384 7.52653 21.5034C7.49455 21.3684 7.4363 21.241 7.35509 21.1285C7.27389 21.016 7.17132 20.9206 7.05326 20.8478C6.93519 20.7749 6.80392 20.7261 6.66696 20.7039C6.53 20.6818 6.39003 20.6869 6.25503 20.7189C2.32203 21.6509 0.155029 23.2739 0.155029 25.2909C0.155029 28.7599 6.53603 30.5749 12.837 30.5749C19.138 30.5749 25.519 28.7589 25.519 25.2909C25.522 23.2739 23.352 21.6509 19.422 20.7189Z" fill="#FFB900"></path></svg>