<svg xmlns="http://www.w3.org/2000/svg" width="52" height="48" viewBox="0 0 52 48" fill="none"><path d="M14.6987 27.1902L12.1154 24.4534V15.0964C12.1154 13.6022 10.9681 12.3867 9.55769 12.3867C8.14731 12.3867 7 13.6022 7 15.0964V32.1288C7 32.3022 7.05481 32.4695 7.15492 32.6057L13.5769 41.2993V48H15.0385V41.0322C15.0385 40.8587 14.9837 40.6915 14.8835 40.5552L8.46154 31.8617V15.0964C8.46154 14.4561 8.95335 13.9351 9.55769 13.9351C10.162 13.9351 10.6538 14.4561 10.6538 15.0964V24.7739C10.6538 24.9798 10.7313 25.1765 10.868 25.3213L11.9378 26.4547C10.7773 26.8162 9.92308 27.9419 9.92308 29.286C9.92308 30.0787 10.2139 30.822 10.743 31.3817L15.2526 36.1601L16.2859 35.0654L11.7756 30.287C11.5271 30.023 11.3846 29.6583 11.3846 29.286C11.3846 28.5056 11.9838 27.8707 12.7212 27.8707C13.0771 27.8707 13.4125 28.0178 13.6646 28.2834L13.7918 28.4181L20.1546 35.1591V48H21.6161V34.8385C21.6161 34.6326 21.5394 34.436 21.402 34.2912L14.6987 27.1902Z" fill="black"></path><path d="M42.4425 12.3867C41.0321 12.3867 39.8848 13.6022 39.8848 15.0964V24.4534L37.303 27.1886C37.3022 27.1894 37.3015 27.1894 37.3008 27.1902L30.5989 34.2912C30.4622 34.436 30.3848 34.6326 30.3848 34.8385V48H31.8463V35.1591L38.2091 28.4173L38.3377 28.281C38.5898 28.017 38.9238 27.8707 39.279 27.8707C40.0156 27.8707 40.6155 28.5056 40.6155 29.286C40.6155 29.6591 40.473 30.023 40.2238 30.287L35.7143 35.0654L36.7476 36.1601L41.2572 31.3817C41.7862 30.822 42.0771 30.078 42.0771 29.286C42.0771 27.9419 41.2221 26.8162 40.0623 26.4547L41.1322 25.3213C41.2696 25.1765 41.3463 24.9798 41.3463 24.7739V15.0964C41.3463 14.4561 41.8381 13.9351 42.4425 13.9351C43.0468 13.9351 43.5386 14.4561 43.5386 15.0964V31.8617L37.1166 40.5552C37.0165 40.6915 36.9617 40.8587 36.9617 41.0322V48H38.4232V41.2993L44.8452 32.6057C44.9461 32.4695 45.0001 32.3015 45.0001 32.1288V15.0964C45.0001 13.6022 43.8528 12.3867 42.4425 12.3867Z" fill="black"></path><path d="M31.9955 28.0287C34.2163 25.6758 34.0417 21.8033 34.0329 21.6399C34.0125 21.2451 33.715 20.9308 33.3438 20.9099C33.1903 20.9006 29.5343 20.7148 27.3135 23.0676C27.095 23.299 26.9057 23.5483 26.7318 23.8038V20.8897C27.9529 20.8255 30.3623 20.4701 31.9963 18.7382C34.2171 16.3854 34.0424 12.5129 34.0336 12.3495C34.0132 11.9547 33.7158 11.6403 33.3445 11.6194C33.1911 11.6086 29.535 11.4243 27.3142 13.7771C27.0957 14.0086 26.9065 14.2579 26.7325 14.5134V11.9701C27.513 11.2393 29.6556 8.9794 29.6556 6.19304C29.6556 2.86087 26.5835 0.272713 26.4526 0.164325C26.1881 -0.0547748 25.8161 -0.0547748 25.5516 0.164325C25.4186 0.273487 22.3465 2.86087 22.3465 6.19304C22.3465 8.9794 24.4891 11.2393 25.2695 11.9701V14.5134C25.0949 14.2579 24.9063 14.0086 24.6878 13.7771C22.467 11.4243 18.8132 11.6101 18.6575 11.6194C18.2856 11.6403 17.9889 11.9554 17.9684 12.3495C17.9596 12.5129 17.785 16.3854 20.0058 18.7382C21.6398 20.4693 24.0491 20.8255 25.2703 20.8897V23.8038C25.0956 23.5483 24.9071 23.299 24.6886 23.0676C22.4678 20.7148 18.8139 20.9006 18.6583 20.9099C18.2863 20.9308 17.9896 21.2459 17.9691 21.6399C17.9604 21.8033 17.7857 25.6758 20.0065 28.0287C21.6405 29.7598 24.0499 30.1159 25.271 30.1802V34.8385H26.7325V30.1802C27.9522 30.1159 30.3615 29.7605 31.9955 28.0287ZM28.3461 24.1623C29.5906 22.8438 31.5293 22.5357 32.5619 22.4691C32.5012 23.56 32.2126 25.6085 30.9622 26.9339C29.7177 28.2524 27.779 28.5605 26.7464 28.6271C26.8078 27.5355 27.0957 25.4877 28.3461 24.1623ZM28.3461 14.8719C29.5906 13.5534 31.5293 13.2453 32.5619 13.1787C32.5012 14.2695 32.2126 16.3181 30.9622 17.6435C29.7177 18.962 27.779 19.2701 26.7464 19.3367C26.8078 18.2451 27.0957 16.1973 28.3461 14.8719ZM21.0384 17.6435C19.7939 16.325 19.503 14.2711 19.4402 13.1764C20.4706 13.2414 22.4035 13.5472 23.6538 14.8711C24.8983 16.1895 25.1891 18.2435 25.252 19.3382C24.2223 19.274 22.2895 18.9682 21.0384 17.6435ZM21.0384 26.9339C19.7939 25.6155 19.503 23.5615 19.4402 22.4668C20.4706 22.5318 22.4035 22.8376 23.6538 24.1615C24.8983 25.48 25.1891 27.5339 25.252 28.6287C24.2223 28.5644 22.2895 28.2586 21.0384 26.9339ZM23.808 6.19304C23.808 4.28695 25.2447 2.57597 26.0003 1.80951C26.7559 2.57597 28.1926 4.28695 28.1926 6.19304C28.1926 8.09913 26.7559 9.81012 26.0003 10.5766C25.2447 9.81012 23.808 8.09913 23.808 6.19304Z" fill="black"></path></svg>