<svg xmlns="http://www.w3.org/2000/svg" width="40" height="46" viewBox="0 0 40 46" fill="none"><path d="M33.0392 39.2206H31.4828V45.3747H29.9852V39.2454H28.4464V45.3685H26.9135V39.233H25.3572V45.3809H23.8654V39.2454H22.3032V45.3685H20.7644V39.233H19.2198V45.3871H17.7339V39.2392H16.1893V45.3747H14.6799V39.2268H13.1001V45.3809H11.6024V39.2392H10.0519V45.3747H8.54255V39.2268H6.99793V45.3871H5.48268V39.2392H3.91457V45.2632C3.29279 45.1302 2.72571 44.7961 2.29208 44.3074C1.85846 43.8188 1.57981 43.1997 1.49486 42.5363C1.10723 39.642 0.719611 36.7478 0.355481 33.8597C0.0970652 31.7773 1.00739 30.699 2.99249 30.699H6.89222C6.93333 30.699 6.96857 30.699 6.93333 30.699C7.08603 29.2611 7.22111 27.8605 7.3973 26.466C7.4755 25.8959 7.60731 25.3353 7.7908 24.7927C8.21967 23.3693 8.21967 21.8406 7.7908 20.4172C7.35032 18.6509 6.98619 16.8598 6.55745 14.9448C5.16553 14.7465 4.57822 13.4388 4.08489 12.0691C3.69139 10.873 3.38012 9.67689 2.969 8.49936C2.55789 7.32182 2.19375 6.34881 1.72978 5.30762C1.00152 3.65288 1.52422 2.61169 3.23916 2.48774C4.01441 2.42576 4.78965 2.48774 5.58839 2.40717C6.38713 2.3266 7.08015 2.22124 8.01985 2.10349L6.67491 4.58251C7.56063 4.08678 8.30323 3.34811 8.82446 2.44435C9.10637 1.95475 9.37653 1.45275 9.67018 0.96934C9.85616 0.628722 10.1466 0.365146 10.4936 0.222065C10.8405 0.0789852 11.2234 0.0649422 11.5789 0.182252C12.9317 0.566605 14.0924 1.4853 14.8209 2.74803C15.0147 3.03312 15.185 3.36779 15.4082 3.67767C16.8861 3.02669 18.47 2.68568 20.0714 2.67366C21.6178 2.68781 23.1472 3.01605 24.5761 3.64048C25.0997 2.86249 25.6895 2.13644 26.338 1.47134C27.0087 0.918512 27.7606 0.485162 28.5639 0.188449C28.8968 0.0604571 29.2623 0.0633036 29.5934 0.196467C29.9246 0.329631 30.1991 0.584201 30.3669 0.913562C30.6723 1.40937 30.9542 1.92996 31.2479 2.43816C31.772 3.33502 32.5089 4.07202 33.3857 4.57631L32.0407 2.21505C33.8027 2.3204 35.4941 2.38858 37.1679 2.54352C37.4144 2.54196 37.6571 2.60696 37.873 2.73231C38.0889 2.85767 38.2709 3.03923 38.4015 3.25972C38.5322 3.48022 38.6072 3.73231 38.6195 3.99205C38.6318 4.25178 38.581 4.51051 38.4718 4.74364C37.5849 7.31562 36.6746 9.8876 35.729 12.4348C35.2827 13.6433 34.666 14.7279 33.3798 14.9138C32.9217 17.2503 32.3344 19.5372 31.9409 21.8551C31.8262 22.6633 31.8804 23.4882 32.0995 24.2721C32.6734 26.2429 32.9509 28.2965 32.9217 30.3581C32.9251 30.4708 32.9389 30.5829 32.9628 30.6928C34.1374 30.6928 35.359 30.7671 36.5395 30.6928C38.7772 30.5192 40.0634 31.6968 39.5876 34.4113C39.1119 37.1258 38.8476 39.8465 38.4835 42.5611C38.4016 43.2251 38.1275 43.8463 37.6986 44.3398C37.2698 44.8334 36.7071 45.1753 36.0873 45.319V39.233H34.5368V45.3871H33.0392V39.2206ZM26.2616 4.6011C26.6023 4.89238 26.9312 5.13409 27.2131 5.41918C27.3922 5.57533 27.5052 5.80017 27.5272 6.04425C27.5493 6.28832 27.4785 6.53163 27.3305 6.72066C27.1826 6.90968 26.9695 7.02894 26.7382 7.05218C26.5069 7.07543 26.2763 7.00076 26.0972 6.84461C25.8211 6.64629 25.5686 6.40459 25.2926 6.22486C23.6028 5.08438 21.6218 4.51913 19.6176 4.60559C17.6134 4.69205 15.6827 5.42604 14.0867 6.70827C13.5582 7.14209 13.0355 7.15449 12.6948 6.70827C12.3542 6.26204 12.4247 5.69806 12.9767 5.22085C13.2293 4.99774 13.4877 4.78703 13.7285 4.6011C13.5087 4.03738 13.1823 3.52683 12.7693 3.10061C12.3563 2.67439 11.8654 2.34144 11.3264 2.12208C11.4615 3.07031 11.6083 3.98135 11.7199 4.88619C12.1369 8.23906 11.438 11.2263 9.06525 13.6309C8.91269 13.7775 8.79139 13.9566 8.70937 14.1564C8.62736 14.3562 8.58651 14.5722 8.58954 14.7899C8.52493 16.4632 9.0124 18.025 9.447 19.593C10.0094 21.5064 10.0094 23.5548 9.447 25.4682C9.10518 26.7201 8.90218 28.0095 8.84208 29.3107C8.64827 32.3351 9.93447 34.591 12.595 35.7066C13.9316 36.2025 15.3074 36.5717 16.7061 36.8097C17.4843 36.9291 18.2691 36.9953 19.0554 37.0081V33.2399C18.6854 33.178 18.3506 33.1346 18.0276 33.0664C16.9173 32.9105 15.8732 32.4199 15.0206 31.6534C14.8249 31.4987 14.666 31.298 14.5566 31.0673C14.4471 30.8365 14.3902 30.582 14.3902 30.324C14.3902 30.066 14.4471 29.8115 14.5566 29.5807C14.666 29.35 14.8249 29.1493 15.0206 28.9946C15.4619 28.5865 15.9665 28.2616 16.5123 28.034C18.3105 27.3157 20.2692 27.1713 22.1446 27.6188C23.1887 27.7845 24.1655 28.2643 24.9578 29.0008C25.1468 29.1555 25.2998 29.3537 25.4051 29.5804C25.5103 29.807 25.565 30.0561 25.565 30.3085C25.565 30.5609 25.5103 30.81 25.4051 31.0366C25.2998 31.2633 25.1468 31.4615 24.9578 31.6162C24.4866 32.0522 23.9457 32.3964 23.3603 32.6326C22.5631 32.8955 21.7534 33.1147 20.9347 33.2895V36.9151C22.9292 36.975 24.9178 36.6602 26.8078 35.9855C30.0439 34.746 31.5533 32.2112 31.1187 28.5918C30.9425 27.1292 30.5314 25.6913 30.2436 24.2535C29.8442 22.3942 30.3023 20.6651 30.7193 18.8926C31.0306 17.5726 31.2185 16.2153 31.4123 14.8642C31.4402 14.6238 31.4095 14.3798 31.3232 14.1553C31.2368 13.9309 31.0977 13.7333 30.919 13.5813C29.4255 12.1813 28.4879 10.2379 28.2937 8.1399C28.2351 6.81721 28.2646 5.49181 28.3818 4.17347C28.4229 3.49174 28.5756 2.81621 28.6813 2.0787C27.5916 2.55069 26.7222 3.45703 26.2616 4.6011Z" fill="#124944"></path><path d="M26.2618 4.60107C26.7235 3.46285 27.5904 2.56148 28.6757 2.09106C28.5699 2.82857 28.4173 3.5041 28.3761 4.18583C28.2589 5.50418 28.2295 6.82957 28.288 8.15226C28.4823 10.2503 29.4199 12.1937 30.9133 13.5937C31.0921 13.7457 31.2312 13.9432 31.3175 14.1677C31.4038 14.3922 31.4345 14.6361 31.4066 14.8766C31.2128 16.2277 31.0249 17.5849 30.7136 18.905C30.2966 20.6775 29.8385 22.419 30.2379 24.2659C30.5492 25.7099 30.9368 27.1477 31.113 28.6042C31.5476 32.2235 30.0382 34.7397 26.8022 35.9978C24.9121 36.6726 22.9235 36.9873 20.9291 36.9275V33.2895C21.7521 33.109 22.5656 32.8835 23.3664 32.614C23.9518 32.3778 24.4927 32.0336 24.9639 31.5976C25.1529 31.4429 25.3059 31.2447 25.4111 31.018C25.5164 30.7913 25.5711 30.5423 25.5711 30.2899C25.5711 30.0375 25.5164 29.7884 25.4111 29.5618C25.3059 29.3351 25.1529 29.1369 24.9639 28.9822C24.1716 28.2457 23.1948 27.7658 22.1507 27.6002C20.2753 27.1527 18.3166 27.2971 16.5184 28.0154C15.9726 28.2429 15.468 28.5679 15.0266 28.976C14.8309 29.1307 14.6721 29.3314 14.5626 29.5621C14.4532 29.7929 14.3963 30.0474 14.3963 30.3054C14.3963 30.5634 14.4532 30.8179 14.5626 31.0486C14.6721 31.2794 14.8309 31.4801 15.0266 31.6348C15.8792 32.4013 16.9233 32.8919 18.0336 33.0478C18.3567 33.116 18.6914 33.1593 19.0614 33.2213V37.008C18.2751 36.9953 17.4904 36.9291 16.7122 36.8097C15.3135 36.5717 13.9376 36.2025 12.6011 35.7065C9.94055 34.591 8.65434 32.3351 8.84816 29.3107C8.91164 28.0069 9.11858 26.7153 9.46483 25.462C10.0273 23.5485 10.0273 21.5002 9.46483 19.5867C9.03022 18.0188 8.54276 16.488 8.60736 14.7836C8.60434 14.5659 8.64519 14.35 8.7272 14.1502C8.80921 13.9504 8.93052 13.7713 9.08308 13.6247C11.4323 11.22 12.1547 8.23283 11.7377 4.87996C11.6261 3.96892 11.4793 3.06408 11.3442 2.11586C11.8832 2.33522 12.3741 2.66816 12.7871 3.09438C13.2001 3.5206 13.5265 4.03115 13.7463 4.59487C13.5055 4.79939 13.2471 5.01011 12.9945 5.21463C12.4425 5.69184 12.3426 6.24342 12.7126 6.70204C13.0826 7.16066 13.576 7.11107 14.1046 6.70204C15.6977 5.42431 17.6236 4.6924 19.6229 4.60486C21.6222 4.51732 23.5989 5.07836 25.2869 6.21243C25.5629 6.40455 25.8155 6.64626 26.0915 6.83218C26.2706 6.98834 26.5012 7.063 26.7325 7.03976C26.9638 7.01651 27.1769 6.89726 27.3249 6.70823C27.4728 6.51921 27.5436 6.2759 27.5216 6.03182C27.4995 5.78775 27.3865 5.5629 27.2074 5.40675C26.9314 5.13406 26.6025 4.89235 26.2618 4.60107ZM20.5238 19.1219C20.5791 16.8544 19.7906 14.6541 18.3273 12.9925C16.3363 10.811 13.5877 11.1333 12.0372 13.6619C11.0947 15.2816 10.709 17.1942 10.9448 19.0785C10.9932 20.1429 11.2402 21.1868 11.6715 22.1503C12.1029 23.1138 12.7101 23.9781 13.4585 24.6935C13.849 25.094 14.3185 25.3985 14.8334 25.5855C15.3483 25.7724 15.896 25.8371 16.4373 25.7749C16.9787 25.7128 17.5003 25.5253 17.9651 25.2259C18.4299 24.9265 18.8263 24.5225 19.126 24.0428C20.0963 22.6115 20.588 20.8804 20.5238 19.1219ZM26.4615 20.2747C26.2357 19.5806 25.9486 18.9103 25.604 18.2729C25.4829 18.0824 25.3199 17.9256 25.129 17.8159C24.9382 17.7061 24.725 17.6466 24.5077 17.6423C24.2903 17.638 24.0752 17.6892 23.8806 17.7914C23.686 17.8936 23.5177 18.0439 23.3899 18.2295C22.9645 18.8203 22.7342 19.5419 22.7342 20.284C22.7342 21.026 22.9645 21.7476 23.3899 22.3384C23.5174 22.5304 23.6877 22.6863 23.8857 22.7926C24.0837 22.8989 24.3034 22.9522 24.5255 22.9479C24.7476 22.9437 24.9654 22.8819 25.1595 22.768C25.3537 22.6542 25.5185 22.4918 25.6393 22.2951C25.9741 21.651 26.2494 20.9744 26.4615 20.2747ZM25.1812 11.5981C24.6822 11.7225 24.1917 11.8819 23.7129 12.0753C23.5923 12.116 23.4814 12.1836 23.3878 12.2735C23.2942 12.3635 23.2201 12.4737 23.1705 12.5966C23.1208 12.7196 23.0969 12.8523 23.1003 12.9859C23.1038 13.1194 23.1344 13.2507 23.1902 13.3706C23.2463 13.4895 23.3254 13.5947 23.4225 13.6793C23.5195 13.7639 23.6323 13.826 23.7536 13.8616C23.8749 13.8973 24.0019 13.9056 24.1264 13.8862C24.2509 13.8667 24.3702 13.8199 24.4764 13.7486C24.7037 13.6078 24.9574 13.521 25.2197 13.4941C25.482 13.4672 25.7468 13.5009 25.9955 13.593C26.2442 13.685 26.471 13.833 26.66 14.0269C26.849 14.2207 26.9957 14.4557 27.0899 14.7155C27.3895 15.3352 27.8241 15.5211 28.3115 15.2918C28.4308 15.2325 28.5366 15.1466 28.6215 15.0401C28.7065 14.9336 28.7687 14.8091 28.8038 14.6749C28.8389 14.5407 28.8462 14.4002 28.8251 14.2628C28.804 14.1254 28.755 13.9944 28.6815 13.8788C28.0472 12.4719 26.949 11.753 25.1812 11.6291V11.5981Z" fill="#F9D783" fill-opacity="0.5"></path><path d="M20.5235 19.1219C20.5877 20.8804 20.096 22.6114 19.1257 24.0427C18.8259 24.5224 18.4295 24.9264 17.9648 25.2258C17.5 25.5252 16.9783 25.7127 16.437 25.7749C15.8957 25.837 15.348 25.7723 14.8331 25.5854C14.3182 25.3985 13.8487 25.0939 13.4582 24.6935C12.7098 23.978 12.1025 23.1138 11.6712 22.1503C11.2398 21.1867 10.9929 20.1429 10.9445 19.0785C10.7087 17.1941 11.0944 15.2816 12.0369 13.6618C13.5874 11.1146 16.336 10.811 18.327 12.9925C19.7902 14.6541 20.5787 16.8543 20.5235 19.1219ZM14.3661 20.3242C14.4188 20.9046 14.7392 21.6046 15.0792 22.2082C15.1836 22.3715 15.3235 22.506 15.4871 22.6008C15.6507 22.6956 15.8334 22.7479 16.02 22.7534C16.2065 22.7589 16.3917 22.7173 16.56 22.6322C16.7283 22.5471 16.875 22.4209 16.9879 22.264C17.4189 21.72 17.6551 21.0333 17.6551 20.3242C17.6551 19.615 17.4189 18.9284 16.9879 18.3844C16.8692 18.2279 16.7175 18.1027 16.545 18.0189C16.3724 17.9351 16.1837 17.8949 15.9939 17.9015C15.804 17.9081 15.6182 17.9614 15.4513 18.057C15.2843 18.1527 15.1408 18.2881 15.0322 18.4525C14.7111 19.0422 14.3135 19.7437 14.3661 20.3242Z" fill="#124944"></path><path d="M14.2344 20.3069C14.448 19.6611 14.7194 19.0382 15.0449 18.4468C15.1563 18.2845 15.3021 18.1519 15.4705 18.0595C15.639 17.9671 15.8256 17.9175 16.0154 17.9145C16.2052 17.9114 16.3931 17.9552 16.5641 18.0422C16.7351 18.1292 16.8846 18.2571 17.0006 18.4158C17.4316 18.9601 17.6678 19.647 17.6678 20.3565C17.6678 21.066 17.4316 21.753 17.0006 22.2973C16.8877 22.4542 16.741 22.5805 16.5727 22.6657C16.4044 22.7508 16.2192 22.7924 16.0326 22.7869C15.8461 22.7815 15.6634 22.7291 15.4998 22.6343C15.3362 22.5394 15.1963 22.4048 15.0918 22.2415C14.7461 21.6282 14.4588 20.9802 14.2344 20.3069Z" fill="white"></path></svg>